<svg height='100px' width='100px'  fill="#000000" xmlns="http://www.w3.org/2000/svg" xmlns:xlink="http://www.w3.org/1999/xlink" version="1.1" x="0px" y="0px" viewBox="0 0 91 91" style="enable-background:new 0 0 91 91;" xml:space="preserve"><g><path d="M10.7,43.3c0.9,7.7,1.4,14.3,2.3,21.4c0.7,5.9,0.6,12.8,2.7,18.4s7,6,12.3,6.1c7.7,0.2,15.5,0.1,23.3,0.1c3.7,0,7.3,0,11,0   c2.9,0,5.8-0.2,8.1-2.2c2.5-2.1,4.4-5.6,5.1-8.8c1.3-5.7,1.8-11.7,2.7-17.5c0.9-5.6,1.8-11.2,2.7-16.7c0.3-1.7-1.2-2.8-2.8-2.1   c-1,0.4-2,0.7-3.1,0.9c2.9-8.3,5.1-16.9,6.5-25.6C82.4,11.5,84,1,75.1,0.8c-8.2-0.2-12.9,9.8-15.9,15.9c-1.2,2.4-2.3,4.9-3.3,7.3   c-1.6-1.3-3.6-2.3-4.4-3.7c0.3-0.2,0.7-0.5,1.1-0.7c0.6-0.4,1.1-1.3,0.8-2c-0.8-2.4-1.7-4.7-2.5-7.1c-0.3-1-1.1-1.3-2.1-1.2   c-5.8,0.9-11.1,3.2-16.4,5.6c-0.7,0.3-1,1.3-0.8,2c0.6,2.4,1.4,4.7,2.1,7.1c0.3,1,1.3,1.5,2.3,1.3c0.3-0.1,0.7-0.2,1.1-0.3   c0.2,1,0.1,1.8-0.4,3c-0.6,1.4-1,2.8-1.3,4.2c-1.5-2.5-4-4.4-7.4-5.2c-2.3-0.5-4.7-0.5-7,0.1c-1.3-1.4-2.8-2.6-4.5-3.2   c-1.8-0.6-3.4,2-1.9,3.2c0.8,0.6,1.6,1.1,2.4,1.7c-0.4,0.3-0.8,0.6-1.2,0.9c-3.2,2.7-5.1,7.5-3.3,11.5C12.2,41.4,10.5,42,10.7,43.3   z M60.2,23.1c1.4-3.2,3-6.3,4.7-9.3c1.9-3.3,4.2-7.5,8-8.8c7.2-2.5,5.8,7.4,4.5,13.5c-3.9-0.8-8.3-0.6-11.5,2   c-1.2,1,0.1,2.6,1.4,2.4c3.3-0.5,6-1.4,9.3-0.7c0,0.1,0,0.1,0,0.2c-0.3,1.5-0.7,3-1,4.5c-4-0.6-8.3-0.4-11.8,1.8   c-1.2,0.8-0.5,2.7,1,2.3c3.4-0.9,6.6-1.2,10-0.8c-0.5,1.7-1,3.4-1.6,5.1c-4-1.1-9.3-1.1-12.2,1.6c-0.7,0.7-0.1,1.7,0.7,1.8   c2,0.1,4-0.4,6-0.4c1.4,0,2.8,0.3,4.2,0.6c-0.5,1.4-1.1,2.8-1.6,4.2c-3.3-0.4-6.6-1.3-9.7-1.8c-2.4-0.3-4.6-0.3-6.8,0   C55.6,35.1,57.6,29,60.2,23.1z M52,25.2c1,0.6,1.8,1.4,2.6,2.1c-0.4,1.1-0.8,2.2-1.2,3.2c-1.1,1.2-1.9,2.2-3.8,2.3   c-1.9,0.1-3.7-0.5-5.6-0.4c-1.8,0.2-3.5,0.8-5,1.9c0.2-1.6,0.6-3.3,1.3-5.1c0.6-1.4,1.1-2.8,0.8-4.3c-0.1-0.7-0.5-1.2-0.6-1.9   c0-0.2-0.1-0.4-0.1-0.5c0.4-0.1,0.8-0.2,1.2-0.4c0.9-0.3,5.3-2.3,5.9-1.9c0.5,0.3,0.7,2.2,1.2,2.8C49.6,24.1,51,24.6,52,25.2z    M51.5,36.3c-0.5,1.8-1,3.7-1.5,5.6c-1.8,0.4-3.6,0.9-5.5,1.4c-1.4,0.4-2.9,0.7-4.3,0.8c-0.5-1.7-0.9-3.3-1.1-4.9   c1.5-1.8,3.1-3.2,5.7-3.2c1.8,0,3.6,0.6,5.4,0.5C50.6,36.5,51.1,36.4,51.5,36.3z M36.4,21.2L36.4,21.2c-0.4-1.2-0.9-2.4-1.2-3.7   c4.1-2,8.2-3.7,12.7-4.5c0.4,1.3,0.9,2.6,1.3,3.9C49.2,16.9,37,19.3,36.4,21.2z M19.4,32.6c0.1-0.1,0.2-0.1,0.3-0.2   c0.3,0.6,0.6,1.2,0.9,1.9c0.7,1.4,3.2,0.8,3-0.8c-0.1-0.8-0.2-1.5-0.5-2.3c1.6-0.3,3.4-0.2,4.9,0.3c5.2,1.6,6.6,7.4,5.2,12.1   c-2.4-0.6-4.7-1.5-7-2.2c-3.3-0.9-6.8-1.7-10.1-1.2C16.2,37.1,16.5,34.5,19.4,32.6z M14.2,45c5.1-2.7,11.9,0.6,17,2.1   c5.8,1.6,10.8,1,16.5-0.6c2.9-0.8,5.8-1.7,8.8-1.7c2.9,0,5.7,0.6,8.6,1.2c4,0.8,7.8,1.3,11.6,0.4c-1.4,9.1-4.7,30.1-5,31.4   c-0.4,1.5-1.2,3.2-2.1,4.5c-2.4,3.3-6.2,2.7-9.8,2.6c-6.7-0.2-13.5-0.2-20.2-0.1c-3.3,0-6.5,0-9.8,0c-2.6,0-7.8,1.1-9.6-1.3   c-1.8-2.4-1.8-6.3-2.1-9.1c-0.5-3.6-0.9-7.1-1.4-10.7c-0.8-6.2-1.6-12.4-2.6-18.5C14.1,45,14.1,45,14.2,45z"></path><path d="M20.6,38.9c0.6,0,1.2-0.6,1.2-1.2c0-0.7-0.5-1.2-1.2-1.2c-0.6,0-1.2,0.6-1.2,1.2C19.4,38.3,19.9,38.9,20.6,38.9z"></path><path d="M26.6,36.4c0.6,0,1.2-0.6,1.2-1.2c0-0.7-0.5-1.2-1.2-1.2c-0.6,0-1.2,0.6-1.2,1.2C25.4,35.9,25.9,36.4,26.6,36.4z"></path><path d="M30.1,40.1c0.6,0,1.2-0.6,1.2-1.2c0-0.7-0.5-1.2-1.2-1.2c-0.6,0-1.2,0.6-1.2,1.2S29.4,40.1,30.1,40.1z"></path><path d="M27.6,65.7c2.4-0.5,4.5-2.8,6.7-4c2.5-1.4,5.2-2.4,8-2.9c0.9-0.2,1.6-0.6,2.1,0.2c0.6,0.9-0.2,1.5-0.7,2.3   c-0.8,1.3-1.6,2.7-2.3,4c-1.1,2.2-2.7,4.7-2.9,7.2c-0.1,1.7,0.3,3.3,1.8,4.2c2,1.3,4.4,0.2,6.4-0.5c5.9-2.1,11.5-4.9,16.7-8.2   c2.4-1.5,0.2-5.4-2.3-3.9c-2.7,1.7-11.8,6.4-13.5,7.1c-0.8,0.3-3.5,1.8-4.2,1.6c-1.4-0.5,0.3-2.9,0.8-3.9c0.7-1.4,5.3-8.5,4.9-11   c-1.4-9-21.6,0.8-22.9,6.4C26.1,65.3,26.8,65.9,27.6,65.7z"></path></g></svg>